# xmcd CD database file
#
# Track frame offsets:
#	150
#	27418
#	60000
#	89747
#	100200
#	111135
#	205736
#
# Disc length: 3756 seconds
#
# Revision: 0
# Processed by: cddbd v1.5.1PL0 Copyright (c) Steve Scherf et al.
# Submitted via: CDex 1.51
#
DISCID=540eaa07
DTITLE=Zero - 96-12-31 Disc3
DYEAR=1996
DGENRE=Jazz
TTITLE0=Dear Doctor
TTITLE1=Highway 61 Revisited
TTITLE2=Jam
TTITLE3=Badge
TTITLE4=Auld Lang Syne
TTITLE5=Filler-Point Of No Return
TTITLE6=Filler-Footprints
EXTD=YEAR: 1996
EXTT0=
EXTT1=
EXTT2=
EXTT3=
EXTT4=
EXTT5=
EXTT6=
PLAYORDER=
